<?xml version="1.0" standalone="no"?>
<!DOCTYPE svg PUBLIC "-//W3C//DTD SVG 20010904//EN"
 "http://www.w3.org/TR/2001/REC-SVG-20010904/DTD/svg10.dtd">
<svg version="1.0" xmlns="http://www.w3.org/2000/svg"
 width="500.000000pt" height="500.000000pt" viewBox="0 0 500.000000 500.000000"
 preserveAspectRatio="xMidYMid meet">

<g transform="translate(0.000000,500.000000) scale(0.100000,-0.100000)"
fill="#000000" stroke="none">
<path d="M2218 3137 l-108 -62 0 -395 0 -395 65 -37 c35 -21 69 -38 75 -38 13
0 230 123 230 131 0 3 -34 24 -75 48 l-75 42 0 51 c0 43 2 49 17 44 19 -8 278
-152 306 -171 15 -11 -9 -27 -187 -129 -112 -64 -209 -116 -216 -116 -6 0 -41
16 -76 36 l-64 36 0 -29 c0 -24 10 -33 65 -66 39 -23 73 -36 83 -32 9 3 157
85 327 183 310 178 310 178 313 213 l3 36 -135 78 c-75 42 -136 78 -136 80 0
2 61 38 135 81 l136 78 -3 35 c-3 35 -6 37 -286 198 -156 90 -284 163 -285
162 -1 -1 -50 -29 -109 -62z m282 -308 c89 -51 159 -96 158 -101 -2 -5 -21
-19 -43 -32 l-40 -24 -122 72 -123 71 0 52 c0 29 2 53 5 53 3 0 77 -41 165
-91z"/>
<path d="M2572 2164 l-322 -186 -70 41 -70 40 0 -27 c0 -24 10 -33 66 -66 39
-22 72 -35 82 -31 27 10 616 347 630 360 8 7 12 22 10 34 -3 19 -36 3 -326
-165z"/>
<path d="M2572 2043 l-322 -185 -65 36 c-36 20 -68 36 -70 36 -3 0 -5 -10 -5
-23 0 -18 15 -31 65 -60 35 -20 69 -37 75 -37 12 0 618 347 638 365 8 7 12 21
10 32 -3 18 -44 -3 -326 -164z"/>
</g>
</svg>
